<svg width="1024" height="1024" viewBox="0 0 1024 1024" fill="none" xmlns="http://www.w3.org/2000/svg">
<path d="M12 339.953C12 270.242 15.7518 215.042 25.4653 171.34C35.1484 127.773 50.5959 96.3729 73.4844 73.4844C96.3729 50.5959 127.773 35.1484 171.34 25.4653C215.042 15.7518 270.242 12 339.953 12H684.014C753.732 12 808.937 15.7518 852.641 25.4653C896.208 35.1485 927.608 50.5959 950.495 73.4841C973.382 96.3724 988.827 127.773 998.508 171.339C1008.22 215.041 1011.97 270.242 1011.97 339.953V684.014C1011.97 753.732 1008.22 808.937 998.505 852.641C988.822 896.208 973.375 927.608 950.486 950.495C927.598 973.382 896.198 988.827 852.631 998.508C808.928 1008.22 753.727 1011.97 684.014 1011.97H339.953C270.241 1011.98 215.041 1008.23 171.339 998.521C127.773 988.841 96.3727 973.395 73.4844 950.507C50.5961 927.618 35.1486 896.215 25.4653 852.645C15.7518 808.939 12 753.732 12 684.014V339.953Z" fill="url(#paint0_linear_4105_1131)" stroke="url(#paint1_linear_4105_1131)" style="" stroke-width="24"/>
<path d="M760.068 732.254H264.92V775.677H760.068V732.254Z" fill="#2A2A2A" style="fill:#2A2A2A;fill:color(display-p3 0.1628 0.1628 0.1628);fill-opacity:1;"/>
<path d="M736.146 324.5H281.52V367.923H736.146V324.5Z" fill="#2A2A2A" style="fill:#2A2A2A;fill:color(display-p3 0.1628 0.1628 0.1628);fill-opacity:1;"/>
<path d="M736.146 674.356H281.52V717.779H736.146V674.356Z" fill="#2A2A2A" style="fill:#2A2A2A;fill:color(display-p3 0.1628 0.1628 0.1628);fill-opacity:1;"/>
<path d="M509.064 216L264 289.625L278.55 309.601H509.064H739.627L756.183 289.625L509.064 216Z" fill="#2A2A2A" style="fill:#2A2A2A;fill:color(display-p3 0.1628 0.1628 0.1628);fill-opacity:1;"/>
<path fill-rule="evenodd" clip-rule="evenodd" d="M309.78 382.938C309.175 405.412 308.783 426.217 308.383 447.434C308.123 461.25 307.859 475.24 307.531 489.979C306.624 530.728 306.023 576.55 305.646 617.327C305.555 627.123 305.401 636.921 305.246 646.721L305.246 646.721C305.177 651.108 305.108 655.495 305.044 659.882H358.355C358.292 655.484 358.223 651.087 358.153 646.69L358.153 646.68L358.153 646.679C357.999 636.893 357.845 627.109 357.754 617.327C357.376 576.55 356.775 530.728 355.868 489.979C355.539 475.199 355.274 461.172 355.013 447.319L355.013 447.317C354.614 426.14 354.223 405.37 353.619 382.938H309.78Z" fill="#2A2A2A" style="fill:#2A2A2A;fill:color(display-p3 0.1628 0.1628 0.1628);fill-opacity:1;"/>
<path fill-rule="evenodd" clip-rule="evenodd" d="M427.855 382.938C427.25 405.412 426.858 426.217 426.458 447.434L426.458 447.434C426.198 461.25 425.934 475.24 425.606 489.979C424.699 530.728 424.098 576.55 423.721 617.327C423.63 627.123 423.476 636.921 423.321 646.721L423.321 646.721C423.252 651.108 423.183 655.495 423.12 659.882H476.431C476.367 655.484 476.298 651.087 476.228 646.69L476.228 646.68L476.228 646.679C476.074 636.893 475.92 627.109 475.829 617.327C475.451 576.55 474.85 530.728 473.943 489.979C473.614 475.199 473.35 461.171 473.089 447.318V447.317C472.69 426.141 472.298 405.37 471.695 382.938H427.855Z" fill="#2A2A2A" style="fill:#2A2A2A;fill:color(display-p3 0.1628 0.1628 0.1628);fill-opacity:1;"/>
<path fill-rule="evenodd" clip-rule="evenodd" d="M546.453 382.938C545.848 405.412 545.456 426.217 545.056 447.434C544.796 461.25 544.532 475.24 544.205 489.979C543.297 530.728 542.697 576.55 542.319 617.327C542.229 627.123 542.074 636.921 541.92 646.721L541.92 646.721C541.85 651.108 541.781 655.495 541.718 659.882H595.029C594.965 655.484 594.896 651.087 594.827 646.69L594.826 646.68L594.826 646.679C594.672 636.893 594.518 627.109 594.428 617.327C594.049 576.55 593.448 530.728 592.541 489.979C592.212 475.199 591.948 461.172 591.687 447.319L591.687 447.317C591.288 426.14 590.897 405.37 590.293 382.938H546.453Z" fill="#2A2A2A" style="fill:#2A2A2A;fill:color(display-p3 0.1628 0.1628 0.1628);fill-opacity:1;"/>
<path fill-rule="evenodd" clip-rule="evenodd" d="M665.052 382.938C664.447 405.412 664.055 426.217 663.655 447.434C663.395 461.25 663.131 475.24 662.803 489.979C661.896 530.728 661.295 576.55 660.918 617.327C660.827 627.123 660.673 636.921 660.518 646.721L660.518 646.721C660.449 651.108 660.38 655.495 660.316 659.882H713.627C713.564 655.484 713.495 651.087 713.425 646.69L713.425 646.68L713.425 646.679C713.271 636.893 713.117 627.109 713.026 617.327C712.648 576.55 712.047 530.728 711.14 489.979C710.811 475.199 710.546 461.171 710.285 447.318V447.317C709.886 426.141 709.495 405.37 708.891 382.938H665.052Z" fill="#2A2A2A" style="fill:#2A2A2A;fill:color(display-p3 0.1628 0.1628 0.1628);fill-opacity:1;"/>
<circle cx="752.5" cy="741.5" r="164.5" fill="url(#paint2_linear_4105_1131)" style=""/>
<path d="M640.9 741.5C640.9 679.865 690.865 629.9 752.5 629.9C814.135 629.9 864.1 679.865 864.1 741.5C864.1 803.135 814.135 853.1 752.5 853.1C690.865 853.1 640.9 803.135 640.9 741.5ZM752.5 602C675.456 602 613 664.456 613 741.5C613 818.543 675.456 881 752.5 881C829.543 881 892 818.543 892 741.5C892 664.456 829.543 602 752.5 602ZM831.627 706.027L808.898 683.298L738.55 753.647L699.589 714.686L676.861 737.414L738.55 799.103L831.627 706.027Z" fill="white" style="fill:white;fill-opacity:1;"/>
<path d="M640.9 741.5C640.9 679.865 690.865 629.9 752.5 629.9C814.135 629.9 864.1 679.865 864.1 741.5C864.1 803.135 814.135 853.1 752.5 853.1C690.865 853.1 640.9 803.135 640.9 741.5ZM752.5 602C675.456 602 613 664.456 613 741.5C613 818.543 675.456 881 752.5 881C829.543 881 892 818.543 892 741.5C892 664.456 829.543 602 752.5 602ZM831.627 706.027L808.898 683.298L738.55 753.647L699.589 714.686L676.861 737.414L738.55 799.103L831.627 706.027Z" fill="url(#paint3_linear_4105_1131)" style=""/>
<defs>
<linearGradient id="paint0_linear_4105_1131" x1="511.985" y1="0" x2="511.985" y2="1023.97" gradientUnits="userSpaceOnUse">
<stop stop-color="white" style="stop-color:white;stop-opacity:1;"/>
<stop offset="1" stop-color="#F9F9F9" style="stop-color:#F9F9F9;stop-color:color(display-p3 0.9779 0.9779 0.9779);stop-opacity:1;"/>
</linearGradient>
<linearGradient id="paint1_linear_4105_1131" x1="511.985" y1="0" x2="511.985" y2="1023.97" gradientUnits="userSpaceOnUse">
<stop stop-color="#F5F5F5" style="stop-color:#F5F5F5;stop-color:color(display-p3 0.9620 0.9620 0.9620);stop-opacity:1;"/>
<stop offset="1" stop-color="#CACACA" style="stop-color:#CACACA;stop-color:color(display-p3 0.7913 0.7913 0.7913);stop-opacity:1;"/>
</linearGradient>
<linearGradient id="paint2_linear_4105_1131" x1="752.5" y1="577" x2="752.5" y2="906" gradientUnits="userSpaceOnUse">
<stop stop-color="#F8F8F8" style="stop-color:#F8F8F8;stop-color:color(display-p3 0.9725 0.9725 0.9725);stop-opacity:1;"/>
<stop offset="1" stop-color="#F9F9F9" style="stop-color:#F9F9F9;stop-color:color(display-p3 0.9779 0.9779 0.9779);stop-opacity:1;"/>
</linearGradient>
<linearGradient id="paint3_linear_4105_1131" x1="613" y1="602" x2="892" y2="881" gradientUnits="userSpaceOnUse">
<stop stop-color="#003EFF" style="stop-color:#003EFF;stop-color:color(display-p3 0.0000 0.2419 1.0000);stop-opacity:1;"/>
<stop offset="1" stop-color="#FF3114" style="stop-color:#FF3114;stop-color:color(display-p3 1.0000 0.1908 0.0766);stop-opacity:1;"/>
</linearGradient>
</defs>
</svg>
