<svg width="100" height="97" viewBox="0 0 100 97" fill="none" xmlns="http://www.w3.org/2000/svg">
<path d="M43.0355 0L0 11.8226L3.05244 22.4191H82.2623L85.7534 11.8226L43.0355 0Z" fill="#000"/>
<path d="M42 81L0.160364 80.5383V89.1333H46.2916C44.5762 86.8254 43.0596 83.7226 42 81Z" fill="#000"/>
<path d="M42 81L3.05244 80.5702V72.4796H40.2604C40.3935 75.0984 41.2827 78.5812 42 81Z" fill="#000"/>
<path d="M57.5876 41.0938C54.4376 42.7645 50.5765 44.9399 48.1502 47.5125C48.1804 46.0646 48.2131 44.6381 48.2485 43.2505C48.3052 41.0225 48.3509 38.9077 48.3959 36.8191L48.3963 36.803C48.4654 33.6013 48.5333 31.4815 48.6379 28.0899H57.2509C57.3553 31.4745 57.423 33.5883 57.492 36.7832L57.493 36.8323C57.5232 38.2322 57.5537 39.6439 57.5876 41.0938Z" fill="#000"/>
<path d="M77.8082 37.8037C76.0202 37.4976 74.1822 37.3381 72.307 37.3381C71.3759 37.3381 69.4347 37.3775 68.5236 37.4545C68.5282 37.2424 68.5329 37.0306 68.5375 36.8191L68.5378 36.8058C68.6083 33.6031 68.6775 31.4825 68.7841 28.0899H77.5401C77.6465 31.4723 77.7154 33.5844 77.7856 36.7771L77.7857 36.7787L77.7862 36.8014C77.7935 37.1347 77.8008 37.4688 77.8082 37.8037Z" fill="#000"/>
<path d="M7.69326 36.8066C7.76245 33.6036 7.83031 31.4828 7.93497 28.0899H16.5478C16.6522 31.475 16.7199 33.5892 16.7889 36.7847L16.7892 36.8014C16.8344 38.8956 16.8803 41.0163 16.9373 43.2505C17.0944 49.4104 17.1985 56.3372 17.264 62.5014C17.2798 63.9792 17.3064 64.437 17.3331 65.9154L17.3331 65.9181V65.9196C17.3452 66.5843 17.3572 66.2285 17.3681 66.8934H7.11462C7.12571 66.2302 7.13766 66.5875 7.14961 65.9243C7.17646 64.4429 7.20313 63.9822 7.2189 62.5014C7.2842 56.3372 7.3883 49.4104 7.54541 43.2505C7.60222 41.0225 7.64795 38.9077 7.69298 36.8191L7.69326 36.8066Z" fill="#000"/>
<path d="M28.4934 28.0899C28.3888 31.4831 28.3209 33.6041 28.2517 36.8073L28.2515 36.8191C28.2064 38.9077 28.1607 41.0225 28.1039 43.2505C27.9468 49.4104 27.8427 56.3372 27.7774 62.5014C27.7616 63.9822 27.7349 64.4429 27.7081 65.9243L27.708 65.9314C27.696 66.5922 27.6841 66.2326 27.6733 66.8934H37.9268C37.9157 66.2285 37.9037 66.5843 37.8916 65.9196V65.9181L37.8916 65.917C37.8649 64.438 37.8382 63.9797 37.8225 62.5014C37.757 56.3372 37.6529 49.4104 37.4958 43.2505C37.4391 41.0288 37.3936 38.9195 37.3486 36.8369L37.3486 36.8345L37.3479 36.8016C37.2788 33.6005 37.2109 31.4809 37.1064 28.0899H28.4934Z" fill="#000"/>
<path fill-rule="evenodd" clip-rule="evenodd" d="M44.9605 69.958C44.9605 55.023 57.2814 42.9159 72.4802 42.9159C87.6788 42.9159 100 55.023 100 69.958C100 84.8927 87.6788 97 72.4802 97C57.2814 97 44.9605 84.8927 44.9605 69.958ZM91.6792 61.5336L86.0361 55.9877L69.0289 72.7503L59.6097 63.4667L53.9669 69.0125L69.3351 83.5399L91.6792 61.5336Z" fill="#000"/>
</svg>
